# xmcd CD database file
#
# Track frame offsets:
#	150
#	17384
#	36092
#	55264
#	72428
#	90749
#	105826
#	125253
#	133676
#	156202
#	174068
#	188713
#
# Disc length: 2793 seconds
#
# Revision: 15
# Processed by: cddbd v1.5.2PL0 Copyright (c) Steve Scherf et al.
# Submitted via: CDex 1.79
#
DISCID=8d0ae70c
DTITLE=Era - Misere Mani
DYEAR=1998
DGENRE=New Age
TTITLE0=Ameno (Remix)
TTITLE1=Mother (Remix)
TTITLE2=Avemano
TTITLE3=Enae Volare Mezzo
TTITLE4=Misere Mani
TTITLE5=Cathar Rhythm
TTITLE6=Ameno
TTITLE7=Sempire D'amor
TTITLE8=Mother
TTITLE9=Mirror
TTITLE10=Era
TTITLE11=Impera
EXTD=YEAR: 1998
EXTT0=
EXTT1=
EXTT2=
EXTT3=
EXTT4=
EXTT5=
EXTT6=
EXTT7=
EXTT8=
EXTT9=
EXTT10=
EXTT11=
PLAYORDER=
